<mxfile host="app.diagrams.net" modified="2022-01-05T08:12:28.801Z" agent="5.0 (X11; Linux x86_64) AppleWebKit/537.36 (KHTML, like Gecko) Chrome/94.0.4606.61 Safari/537.36 Edg/94.0.992.31" etag="aArhc78PEDMqV2pejQXv" version="16.1.0" type="github">
  <diagram id="spzFWITE9Zn2OP-nqxdw" name="Page-1">
    <mxGraphModel dx="1350" dy="773" grid="1" gridSize="10" guides="1" tooltips="1" connect="1" arrows="1" fold="1" page="1" pageScale="1" pageWidth="827" pageHeight="1169" math="0" shadow="0">
      <root>
        <mxCell id="0" />
        <mxCell id="1" parent="0" />
        <mxCell id="oYCqzgZXlXL3odsBXNti-86" value="" style="rounded=0;whiteSpace=wrap;html=1;fillColor=#fff2cc;strokeColor=#d6b656;" vertex="1" parent="1">
          <mxGeometry x="135" y="1220" width="545" height="390" as="geometry" />
        </mxCell>
        <mxCell id="oYCqzgZXlXL3odsBXNti-51" value="" style="rounded=0;whiteSpace=wrap;html=1;fillColor=#fff2cc;strokeColor=#d6b656;" vertex="1" parent="1">
          <mxGeometry x="135" y="585" width="545" height="585" as="geometry" />
        </mxCell>
        <mxCell id="oYCqzgZXlXL3odsBXNti-33" value="" style="rounded=0;whiteSpace=wrap;html=1;fillColor=#fff2cc;strokeColor=#d6b656;" vertex="1" parent="1">
          <mxGeometry x="135" y="80" width="545" height="440" as="geometry" />
        </mxCell>
        <mxCell id="oYCqzgZXlXL3odsBXNti-3" value="file_a.s" style="sketch=0;aspect=fixed;pointerEvents=1;shadow=0;dashed=0;html=1;strokeColor=none;labelPosition=center;verticalLabelPosition=bottom;verticalAlign=top;align=center;fillColor=#67AB9F;shape=mxgraph.mscae.enterprise.code_file" vertex="1" parent="1">
          <mxGeometry x="160" y="120" width="49" height="50" as="geometry" />
        </mxCell>
        <mxCell id="oYCqzgZXlXL3odsBXNti-4" value="file_b.s" style="sketch=0;aspect=fixed;pointerEvents=1;shadow=0;dashed=0;html=1;strokeColor=none;labelPosition=center;verticalLabelPosition=bottom;verticalAlign=top;align=center;fillColor=#67AB9F;shape=mxgraph.mscae.enterprise.code_file" vertex="1" parent="1">
          <mxGeometry x="240" y="120" width="49" height="50" as="geometry" />
        </mxCell>
        <mxCell id="oYCqzgZXlXL3odsBXNti-5" value="file_c.s" style="sketch=0;aspect=fixed;pointerEvents=1;shadow=0;dashed=0;html=1;strokeColor=none;labelPosition=center;verticalLabelPosition=bottom;verticalAlign=top;align=center;fillColor=#67AB9F;shape=mxgraph.mscae.enterprise.code_file" vertex="1" parent="1">
          <mxGeometry x="320" y="120" width="49" height="50" as="geometry" />
        </mxCell>
        <mxCell id="oYCqzgZXlXL3odsBXNti-6" value="file_x.s" style="sketch=0;aspect=fixed;pointerEvents=1;shadow=0;dashed=0;html=1;strokeColor=none;labelPosition=center;verticalLabelPosition=bottom;verticalAlign=top;align=center;fillColor=#7EA6E0;shape=mxgraph.mscae.enterprise.code_file" vertex="1" parent="1">
          <mxGeometry x="440" y="120" width="49" height="50" as="geometry" />
        </mxCell>
        <mxCell id="oYCqzgZXlXL3odsBXNti-7" value="file_y.s" style="sketch=0;aspect=fixed;pointerEvents=1;shadow=0;dashed=0;html=1;strokeColor=none;labelPosition=center;verticalLabelPosition=bottom;verticalAlign=top;align=center;fillColor=#7EA6E0;shape=mxgraph.mscae.enterprise.code_file" vertex="1" parent="1">
          <mxGeometry x="520" y="120" width="49" height="50" as="geometry" />
        </mxCell>
        <mxCell id="oYCqzgZXlXL3odsBXNti-8" value="file_z.s" style="sketch=0;aspect=fixed;pointerEvents=1;shadow=0;dashed=0;html=1;strokeColor=none;labelPosition=center;verticalLabelPosition=bottom;verticalAlign=top;align=center;fillColor=#7EA6E0;shape=mxgraph.mscae.enterprise.code_file" vertex="1" parent="1">
          <mxGeometry x="600" y="120" width="49" height="50" as="geometry" />
        </mxCell>
        <mxCell id="oYCqzgZXlXL3odsBXNti-9" value="head_0.h" style="aspect=fixed;html=1;points=[];align=center;image;fontSize=12;image=img/lib/azure2/general/File.svg;fillColor=#7EA6E0;" vertex="1" parent="1">
          <mxGeometry x="240" y="250" width="56.00000000000001" height="69" as="geometry" />
        </mxCell>
        <mxCell id="oYCqzgZXlXL3odsBXNti-10" value="head_1.h" style="aspect=fixed;html=1;points=[];align=center;image;fontSize=12;image=img/lib/azure2/general/File.svg;fillColor=#7EA6E0;" vertex="1" parent="1">
          <mxGeometry x="520" y="250" width="56.00000000000001" height="69" as="geometry" />
        </mxCell>
        <mxCell id="oYCqzgZXlXL3odsBXNti-11" value="" style="shape=curlyBracket;whiteSpace=wrap;html=1;rounded=1;flipH=1;fillColor=#7EA6E0;rotation=90;" vertex="1" parent="1">
          <mxGeometry x="254.5" y="120" width="20" height="210" as="geometry" />
        </mxCell>
        <mxCell id="oYCqzgZXlXL3odsBXNti-12" value="" style="shape=curlyBracket;whiteSpace=wrap;html=1;rounded=1;flipH=1;fillColor=#7EA6E0;rotation=90;" vertex="1" parent="1">
          <mxGeometry x="534.5" y="120" width="20" height="210" as="geometry" />
        </mxCell>
        <mxCell id="oYCqzgZXlXL3odsBXNti-13" value="main.c" style="verticalLabelPosition=bottom;html=1;verticalAlign=top;align=center;strokeColor=none;fillColor=#00BEF2;shape=mxgraph.azure.code_file;pointerEvents=1;" vertex="1" parent="1">
          <mxGeometry x="380" y="440" width="47.5" height="50" as="geometry" />
        </mxCell>
        <mxCell id="oYCqzgZXlXL3odsBXNti-14" value="" style="endArrow=classic;html=1;rounded=0;dashed=1;" edge="1" parent="1" source="oYCqzgZXlXL3odsBXNti-9" target="oYCqzgZXlXL3odsBXNti-13">
          <mxGeometry width="50" height="50" relative="1" as="geometry">
            <mxPoint x="330" y="450" as="sourcePoint" />
            <mxPoint x="380" y="400" as="targetPoint" />
          </mxGeometry>
        </mxCell>
        <mxCell id="oYCqzgZXlXL3odsBXNti-16" value="include" style="edgeLabel;html=1;align=center;verticalAlign=middle;resizable=0;points=[];" vertex="1" connectable="0" parent="oYCqzgZXlXL3odsBXNti-14">
          <mxGeometry x="0.221" y="-2" relative="1" as="geometry">
            <mxPoint x="-8" y="-14" as="offset" />
          </mxGeometry>
        </mxCell>
        <mxCell id="oYCqzgZXlXL3odsBXNti-15" value="" style="endArrow=classic;html=1;rounded=0;dashed=1;entryX=0.9;entryY=0.1;entryDx=0;entryDy=0;entryPerimeter=0;" edge="1" parent="1" source="oYCqzgZXlXL3odsBXNti-10" target="oYCqzgZXlXL3odsBXNti-13">
          <mxGeometry width="50" height="50" relative="1" as="geometry">
            <mxPoint x="303.9466759002771" y="329" as="sourcePoint" />
            <mxPoint x="394.9480609418283" y="450" as="targetPoint" />
          </mxGeometry>
        </mxCell>
        <mxCell id="oYCqzgZXlXL3odsBXNti-17" value="include" style="edgeLabel;html=1;align=center;verticalAlign=middle;resizable=0;points=[];" vertex="1" connectable="0" parent="oYCqzgZXlXL3odsBXNti-15">
          <mxGeometry x="0.277" y="1" relative="1" as="geometry">
            <mxPoint x="11" y="-20" as="offset" />
          </mxGeometry>
        </mxCell>
        <mxCell id="oYCqzgZXlXL3odsBXNti-18" value="file_a.s" style="sketch=0;aspect=fixed;pointerEvents=1;shadow=0;dashed=0;html=1;strokeColor=none;labelPosition=center;verticalLabelPosition=bottom;verticalAlign=top;align=center;fillColor=#67AB9F;shape=mxgraph.mscae.enterprise.code_file;perimeterSpacing=5;opacity=40;" vertex="1" parent="1">
          <mxGeometry x="159.25" y="600" width="49" height="50" as="geometry" />
        </mxCell>
        <mxCell id="oYCqzgZXlXL3odsBXNti-19" value="file_b.s" style="sketch=0;aspect=fixed;pointerEvents=1;shadow=0;dashed=0;html=1;strokeColor=none;labelPosition=center;verticalLabelPosition=bottom;verticalAlign=top;align=center;fillColor=#67AB9F;shape=mxgraph.mscae.enterprise.code_file;perimeterSpacing=5;opacity=40;" vertex="1" parent="1">
          <mxGeometry x="239.25" y="600" width="49" height="50" as="geometry" />
        </mxCell>
        <mxCell id="oYCqzgZXlXL3odsBXNti-20" value="file_c.s" style="sketch=0;aspect=fixed;pointerEvents=1;shadow=0;dashed=0;html=1;strokeColor=none;labelPosition=center;verticalLabelPosition=bottom;verticalAlign=top;align=center;fillColor=#67AB9F;shape=mxgraph.mscae.enterprise.code_file;perimeterSpacing=5;opacity=40;" vertex="1" parent="1">
          <mxGeometry x="319.25" y="600" width="49" height="50" as="geometry" />
        </mxCell>
        <mxCell id="oYCqzgZXlXL3odsBXNti-21" value="file_x.s" style="sketch=0;aspect=fixed;pointerEvents=1;shadow=0;dashed=0;html=1;strokeColor=none;labelPosition=center;verticalLabelPosition=bottom;verticalAlign=top;align=center;fillColor=#7EA6E0;shape=mxgraph.mscae.enterprise.code_file;perimeterSpacing=5;opacity=40;" vertex="1" parent="1">
          <mxGeometry x="439.25" y="600" width="49" height="50" as="geometry" />
        </mxCell>
        <mxCell id="oYCqzgZXlXL3odsBXNti-22" value="file_y.s" style="sketch=0;aspect=fixed;pointerEvents=1;shadow=0;dashed=0;html=1;strokeColor=none;labelPosition=center;verticalLabelPosition=bottom;verticalAlign=top;align=center;fillColor=#7EA6E0;shape=mxgraph.mscae.enterprise.code_file;perimeterSpacing=5;opacity=40;" vertex="1" parent="1">
          <mxGeometry x="519.25" y="600" width="49" height="50" as="geometry" />
        </mxCell>
        <mxCell id="oYCqzgZXlXL3odsBXNti-23" value="file_z.s" style="sketch=0;aspect=fixed;pointerEvents=1;shadow=0;dashed=0;html=1;strokeColor=none;labelPosition=center;verticalLabelPosition=bottom;verticalAlign=top;align=center;fillColor=#7EA6E0;shape=mxgraph.mscae.enterprise.code_file;perimeterSpacing=5;opacity=40;" vertex="1" parent="1">
          <mxGeometry x="599.25" y="600" width="49" height="50" as="geometry" />
        </mxCell>
        <mxCell id="oYCqzgZXlXL3odsBXNti-24" value="head_0.h" style="aspect=fixed;html=1;points=[];align=center;image;fontSize=12;image=img/lib/azure2/general/File.svg;fillColor=#7EA6E0;opacity=40;" vertex="1" parent="1">
          <mxGeometry x="240" y="860" width="56.00000000000001" height="69" as="geometry" />
        </mxCell>
        <mxCell id="oYCqzgZXlXL3odsBXNti-25" value="head_1.h" style="aspect=fixed;html=1;points=[];align=center;image;fontSize=12;image=img/lib/azure2/general/File.svg;fillColor=#7EA6E0;imageBackground=none;imageBorder=none;opacity=40;" vertex="1" parent="1">
          <mxGeometry x="520" y="860" width="56.00000000000001" height="69" as="geometry" />
        </mxCell>
        <mxCell id="oYCqzgZXlXL3odsBXNti-28" value="main.c" style="verticalLabelPosition=bottom;html=1;verticalAlign=top;align=center;strokeColor=none;fillColor=#00BEF2;shape=mxgraph.azure.code_file;pointerEvents=1;opacity=40;" vertex="1" parent="1">
          <mxGeometry x="379.25" y="970" width="47.5" height="50" as="geometry" />
        </mxCell>
        <mxCell id="oYCqzgZXlXL3odsBXNti-29" value="" style="endArrow=classic;html=1;rounded=0;dashed=1;" edge="1" parent="1" source="oYCqzgZXlXL3odsBXNti-24" target="oYCqzgZXlXL3odsBXNti-28">
          <mxGeometry width="50" height="50" relative="1" as="geometry">
            <mxPoint x="329.25" y="980" as="sourcePoint" />
            <mxPoint x="379.25" y="930" as="targetPoint" />
          </mxGeometry>
        </mxCell>
        <mxCell id="oYCqzgZXlXL3odsBXNti-30" value="include" style="edgeLabel;html=1;align=center;verticalAlign=middle;resizable=0;points=[];" vertex="1" connectable="0" parent="oYCqzgZXlXL3odsBXNti-29">
          <mxGeometry x="0.221" y="-2" relative="1" as="geometry">
            <mxPoint x="-8" y="-14" as="offset" />
          </mxGeometry>
        </mxCell>
        <mxCell id="oYCqzgZXlXL3odsBXNti-31" value="" style="endArrow=classic;html=1;rounded=0;dashed=1;entryX=0.9;entryY=0.1;entryDx=0;entryDy=0;entryPerimeter=0;" edge="1" parent="1" source="oYCqzgZXlXL3odsBXNti-25" target="oYCqzgZXlXL3odsBXNti-28">
          <mxGeometry width="50" height="50" relative="1" as="geometry">
            <mxPoint x="303.1966759002771" y="859" as="sourcePoint" />
            <mxPoint x="394.1980609418283" y="980" as="targetPoint" />
          </mxGeometry>
        </mxCell>
        <mxCell id="oYCqzgZXlXL3odsBXNti-32" value="include" style="edgeLabel;html=1;align=center;verticalAlign=middle;resizable=0;points=[];" vertex="1" connectable="0" parent="oYCqzgZXlXL3odsBXNti-31">
          <mxGeometry x="0.277" y="1" relative="1" as="geometry">
            <mxPoint x="11" y="-20" as="offset" />
          </mxGeometry>
        </mxCell>
        <mxCell id="oYCqzgZXlXL3odsBXNti-35" value="file_a.o" style="sketch=0;aspect=fixed;pointerEvents=1;shadow=0;dashed=0;html=1;strokeColor=none;labelPosition=center;verticalLabelPosition=bottom;verticalAlign=top;align=center;fillColor=#EA6B66;shape=mxgraph.mscae.enterprise.code_file" vertex="1" parent="1">
          <mxGeometry x="158.5" y="710" width="49" height="50" as="geometry" />
        </mxCell>
        <mxCell id="oYCqzgZXlXL3odsBXNti-36" value="file_b.o" style="sketch=0;aspect=fixed;pointerEvents=1;shadow=0;dashed=0;html=1;strokeColor=none;labelPosition=center;verticalLabelPosition=bottom;verticalAlign=top;align=center;fillColor=#EA6B66;shape=mxgraph.mscae.enterprise.code_file" vertex="1" parent="1">
          <mxGeometry x="238.5" y="710" width="49" height="50" as="geometry" />
        </mxCell>
        <mxCell id="oYCqzgZXlXL3odsBXNti-37" value="file_c.o" style="sketch=0;aspect=fixed;pointerEvents=1;shadow=0;dashed=0;html=1;strokeColor=none;labelPosition=center;verticalLabelPosition=bottom;verticalAlign=top;align=center;fillColor=#EA6B66;shape=mxgraph.mscae.enterprise.code_file" vertex="1" parent="1">
          <mxGeometry x="318.5" y="710" width="49" height="50" as="geometry" />
        </mxCell>
        <mxCell id="oYCqzgZXlXL3odsBXNti-38" value="file_x.o" style="sketch=0;aspect=fixed;pointerEvents=1;shadow=0;dashed=0;html=1;strokeColor=none;labelPosition=center;verticalLabelPosition=bottom;verticalAlign=top;align=center;fillColor=#EA6B66;shape=mxgraph.mscae.enterprise.code_file" vertex="1" parent="1">
          <mxGeometry x="438.5" y="710" width="49" height="50" as="geometry" />
        </mxCell>
        <mxCell id="oYCqzgZXlXL3odsBXNti-39" value="file_y.o" style="sketch=0;aspect=fixed;pointerEvents=1;shadow=0;dashed=0;html=1;strokeColor=none;labelPosition=center;verticalLabelPosition=bottom;verticalAlign=top;align=center;fillColor=#EA6B66;shape=mxgraph.mscae.enterprise.code_file" vertex="1" parent="1">
          <mxGeometry x="518.5" y="710" width="49" height="50" as="geometry" />
        </mxCell>
        <mxCell id="oYCqzgZXlXL3odsBXNti-40" value="file_z.o" style="sketch=0;aspect=fixed;pointerEvents=1;shadow=0;dashed=0;html=1;strokeColor=none;labelPosition=center;verticalLabelPosition=bottom;verticalAlign=top;align=center;fillColor=#EA6B66;shape=mxgraph.mscae.enterprise.code_file" vertex="1" parent="1">
          <mxGeometry x="598.5" y="710" width="49" height="50" as="geometry" />
        </mxCell>
        <mxCell id="oYCqzgZXlXL3odsBXNti-41" value="main.o" style="verticalLabelPosition=bottom;html=1;verticalAlign=top;align=center;strokeColor=none;fillColor=#EA6B66;shape=mxgraph.azure.code_file;pointerEvents=1;" vertex="1" parent="1">
          <mxGeometry x="380" y="1080" width="47.5" height="50" as="geometry" />
        </mxCell>
        <mxCell id="oYCqzgZXlXL3odsBXNti-42" value="" style="endArrow=classic;html=1;rounded=0;dashed=1;entryX=0.5;entryY=0;entryDx=0;entryDy=0;entryPerimeter=0;" edge="1" parent="1" target="oYCqzgZXlXL3odsBXNti-35">
          <mxGeometry width="50" height="50" relative="1" as="geometry">
            <mxPoint x="183" y="680" as="sourcePoint" />
            <mxPoint x="220" y="830" as="targetPoint" />
          </mxGeometry>
        </mxCell>
        <mxCell id="oYCqzgZXlXL3odsBXNti-43" value="" style="endArrow=classic;html=1;rounded=0;dashed=1;entryX=0.5;entryY=0;entryDx=0;entryDy=0;entryPerimeter=0;" edge="1" parent="1" target="oYCqzgZXlXL3odsBXNti-36">
          <mxGeometry width="50" height="50" relative="1" as="geometry">
            <mxPoint x="263" y="680" as="sourcePoint" />
            <mxPoint x="193" y="720" as="targetPoint" />
          </mxGeometry>
        </mxCell>
        <mxCell id="oYCqzgZXlXL3odsBXNti-44" value="" style="endArrow=classic;html=1;rounded=0;dashed=1;entryX=0.5;entryY=0;entryDx=0;entryDy=0;entryPerimeter=0;" edge="1" parent="1">
          <mxGeometry width="50" height="50" relative="1" as="geometry">
            <mxPoint x="342.5" y="680" as="sourcePoint" />
            <mxPoint x="342.5" y="710" as="targetPoint" />
          </mxGeometry>
        </mxCell>
        <mxCell id="oYCqzgZXlXL3odsBXNti-45" value="" style="endArrow=classic;html=1;rounded=0;dashed=1;entryX=0.5;entryY=0;entryDx=0;entryDy=0;entryPerimeter=0;" edge="1" parent="1" target="oYCqzgZXlXL3odsBXNti-38">
          <mxGeometry width="50" height="50" relative="1" as="geometry">
            <mxPoint x="463" y="680" as="sourcePoint" />
            <mxPoint x="193" y="720" as="targetPoint" />
          </mxGeometry>
        </mxCell>
        <mxCell id="oYCqzgZXlXL3odsBXNti-46" value="" style="endArrow=classic;html=1;rounded=0;dashed=1;entryX=0.5;entryY=0;entryDx=0;entryDy=0;entryPerimeter=0;" edge="1" parent="1" target="oYCqzgZXlXL3odsBXNti-39">
          <mxGeometry width="50" height="50" relative="1" as="geometry">
            <mxPoint x="543" y="680" as="sourcePoint" />
            <mxPoint x="273" y="720" as="targetPoint" />
          </mxGeometry>
        </mxCell>
        <mxCell id="oYCqzgZXlXL3odsBXNti-47" value="" style="endArrow=classic;html=1;rounded=0;dashed=1;entryX=0.5;entryY=0;entryDx=0;entryDy=0;entryPerimeter=0;" edge="1" parent="1" target="oYCqzgZXlXL3odsBXNti-40">
          <mxGeometry width="50" height="50" relative="1" as="geometry">
            <mxPoint x="623" y="680" as="sourcePoint" />
            <mxPoint x="352.5" y="720" as="targetPoint" />
          </mxGeometry>
        </mxCell>
        <mxCell id="oYCqzgZXlXL3odsBXNti-48" value="" style="endArrow=classic;html=1;rounded=0;dashed=1;entryX=0.5;entryY=0;entryDx=0;entryDy=0;entryPerimeter=0;" edge="1" parent="1" target="oYCqzgZXlXL3odsBXNti-41">
          <mxGeometry width="50" height="50" relative="1" as="geometry">
            <mxPoint x="404" y="1040" as="sourcePoint" />
            <mxPoint x="633" y="660" as="targetPoint" />
          </mxGeometry>
        </mxCell>
        <mxCell id="oYCqzgZXlXL3odsBXNti-49" value="" style="shape=curlyBracket;whiteSpace=wrap;html=1;rounded=1;flipH=1;fillColor=#7EA6E0;rotation=90;" vertex="1" parent="1">
          <mxGeometry x="253" y="720" width="20" height="210" as="geometry" />
        </mxCell>
        <mxCell id="oYCqzgZXlXL3odsBXNti-50" value="" style="shape=curlyBracket;whiteSpace=wrap;html=1;rounded=1;flipH=1;fillColor=#7EA6E0;rotation=90;" vertex="1" parent="1">
          <mxGeometry x="534.5" y="720" width="20" height="210" as="geometry" />
        </mxCell>
        <mxCell id="oYCqzgZXlXL3odsBXNti-62" value="" style="endArrow=classic;html=1;rounded=0;dashed=1;" edge="1" parent="1" source="oYCqzgZXlXL3odsBXNti-59">
          <mxGeometry width="50" height="50" relative="1" as="geometry">
            <mxPoint x="329.25" y="1635" as="sourcePoint" />
            <mxPoint x="379.25" y="1632.3194444444443" as="targetPoint" />
          </mxGeometry>
        </mxCell>
        <mxCell id="oYCqzgZXlXL3odsBXNti-64" value="" style="endArrow=classic;html=1;rounded=0;dashed=1;entryX=0.9;entryY=0.1;entryDx=0;entryDy=0;entryPerimeter=0;" edge="1" parent="1" target="oYCqzgZXlXL3odsBXNti-61">
          <mxGeometry width="50" height="50" relative="1" as="geometry">
            <mxPoint x="520" y="1567.3888888888887" as="sourcePoint" />
            <mxPoint x="394.1980609418283" y="1635" as="targetPoint" />
          </mxGeometry>
        </mxCell>
        <mxCell id="oYCqzgZXlXL3odsBXNti-66" value="file_a.o" style="sketch=0;aspect=fixed;pointerEvents=1;shadow=0;dashed=0;html=1;strokeColor=none;labelPosition=center;verticalLabelPosition=bottom;verticalAlign=top;align=center;fillColor=#EA6B66;shape=mxgraph.mscae.enterprise.code_file" vertex="1" parent="1">
          <mxGeometry x="159.25" y="1240" width="49" height="50" as="geometry" />
        </mxCell>
        <mxCell id="oYCqzgZXlXL3odsBXNti-67" value="file_b.o" style="sketch=0;aspect=fixed;pointerEvents=1;shadow=0;dashed=0;html=1;strokeColor=none;labelPosition=center;verticalLabelPosition=bottom;verticalAlign=top;align=center;fillColor=#EA6B66;shape=mxgraph.mscae.enterprise.code_file" vertex="1" parent="1">
          <mxGeometry x="239.25" y="1240" width="49" height="50" as="geometry" />
        </mxCell>
        <mxCell id="oYCqzgZXlXL3odsBXNti-68" value="file_c.o" style="sketch=0;aspect=fixed;pointerEvents=1;shadow=0;dashed=0;html=1;strokeColor=none;labelPosition=center;verticalLabelPosition=bottom;verticalAlign=top;align=center;fillColor=#EA6B66;shape=mxgraph.mscae.enterprise.code_file" vertex="1" parent="1">
          <mxGeometry x="319.25" y="1240" width="49" height="50" as="geometry" />
        </mxCell>
        <mxCell id="oYCqzgZXlXL3odsBXNti-69" value="file_x.o" style="sketch=0;aspect=fixed;pointerEvents=1;shadow=0;dashed=0;html=1;strokeColor=none;labelPosition=center;verticalLabelPosition=bottom;verticalAlign=top;align=center;fillColor=#EA6B66;shape=mxgraph.mscae.enterprise.code_file" vertex="1" parent="1">
          <mxGeometry x="439.25" y="1240" width="49" height="50" as="geometry" />
        </mxCell>
        <mxCell id="oYCqzgZXlXL3odsBXNti-70" value="file_y.o" style="sketch=0;aspect=fixed;pointerEvents=1;shadow=0;dashed=0;html=1;strokeColor=none;labelPosition=center;verticalLabelPosition=bottom;verticalAlign=top;align=center;fillColor=#EA6B66;shape=mxgraph.mscae.enterprise.code_file" vertex="1" parent="1">
          <mxGeometry x="519.25" y="1240" width="49" height="50" as="geometry" />
        </mxCell>
        <mxCell id="oYCqzgZXlXL3odsBXNti-71" value="file_z.o" style="sketch=0;aspect=fixed;pointerEvents=1;shadow=0;dashed=0;html=1;strokeColor=none;labelPosition=center;verticalLabelPosition=bottom;verticalAlign=top;align=center;fillColor=#EA6B66;shape=mxgraph.mscae.enterprise.code_file" vertex="1" parent="1">
          <mxGeometry x="599.25" y="1240" width="49" height="50" as="geometry" />
        </mxCell>
        <mxCell id="oYCqzgZXlXL3odsBXNti-72" value="main.o" style="verticalLabelPosition=bottom;html=1;verticalAlign=top;align=center;strokeColor=none;fillColor=#EA6B66;shape=mxgraph.azure.code_file;pointerEvents=1;" vertex="1" parent="1">
          <mxGeometry x="380" y="1355" width="47.5" height="50" as="geometry" />
        </mxCell>
        <mxCell id="oYCqzgZXlXL3odsBXNti-83" value="" style="shape=curlyBracket;whiteSpace=wrap;html=1;rounded=1;shadow=0;sketch=0;strokeWidth=1;fillColor=#e1d5e7;opacity=40;rotation=-90;perimeterSpacing=100;strokeColor=default;" vertex="1" parent="1">
          <mxGeometry x="390" y="1222.5" width="20" height="485" as="geometry" />
        </mxCell>
        <mxCell id="oYCqzgZXlXL3odsBXNti-84" value="" style="shape=image;html=1;verticalAlign=top;verticalLabelPosition=bottom;labelBackgroundColor=#ffffff;imageAspect=0;aspect=fixed;image=https://cdn1.iconfinder.com/data/icons/CrystalClear/64x64/apps/package_system.png;rounded=0;shadow=0;sketch=0;strokeColor=default;strokeWidth=1;fillColor=#EA6B66;opacity=40;" vertex="1" parent="1">
          <mxGeometry x="371" y="1530" width="64" height="64" as="geometry" />
        </mxCell>
        <mxCell id="oYCqzgZXlXL3odsBXNti-85" value="" style="endArrow=classic;html=1;rounded=0;dashed=1;" edge="1" parent="1">
          <mxGeometry width="50" height="50" relative="1" as="geometry">
            <mxPoint x="400" y="1480" as="sourcePoint" />
            <mxPoint x="400" y="1520" as="targetPoint" />
          </mxGeometry>
        </mxCell>
        <mxCell id="oYCqzgZXlXL3odsBXNti-87" value="&lt;b&gt;&lt;font style=&quot;font-size: 24px&quot;&gt;&lt;i&gt;汇编as&lt;br&gt;生成对象文件&lt;/i&gt;&lt;/font&gt;&lt;/b&gt;" style="text;html=1;strokeColor=none;fillColor=none;align=center;verticalAlign=middle;whiteSpace=wrap;rounded=0;shadow=0;sketch=0;opacity=40;" vertex="1" parent="1">
          <mxGeometry x="135" y="1080" width="165" height="80" as="geometry" />
        </mxCell>
        <mxCell id="oYCqzgZXlXL3odsBXNti-88" value="&lt;b&gt;&lt;font style=&quot;font-size: 24px&quot;&gt;&lt;i&gt;文件组织结构&lt;/i&gt;&lt;/font&gt;&lt;/b&gt;" style="text;html=1;strokeColor=none;fillColor=none;align=center;verticalAlign=middle;whiteSpace=wrap;rounded=0;shadow=0;sketch=0;opacity=40;" vertex="1" parent="1">
          <mxGeometry x="135" y="430" width="165" height="80" as="geometry" />
        </mxCell>
        <mxCell id="oYCqzgZXlXL3odsBXNti-89" value="&lt;b&gt;&lt;font style=&quot;font-size: 24px&quot;&gt;&lt;i&gt;链接ld&lt;br&gt;生成可执行&lt;/i&gt;&lt;/font&gt;&lt;/b&gt;" style="text;html=1;strokeColor=none;fillColor=none;align=center;verticalAlign=middle;whiteSpace=wrap;rounded=0;shadow=0;sketch=0;opacity=40;" vertex="1" parent="1">
          <mxGeometry x="135" y="1514" width="165" height="80" as="geometry" />
        </mxCell>
      </root>
    </mxGraphModel>
  </diagram>
</mxfile>
